<svg width="165" height="53" viewBox="0 0 165 53" fill="none" xmlns="http://www.w3.org/2000/svg">
<path d="M80.5996 15.5957H53.0996V42H48.6953V11.1914H80.5996V15.5957ZM76.8184 28.8086H55.291V24.4043H76.8184V28.8086ZM88.6133 42H84.252V17.8086H88.6133V42ZM117.188 42C117.188 40.3958 116.915 38.8418 116.371 37.3379C115.841 35.8197 115.118 34.3945 114.201 33.0625C113.299 31.7161 112.246 30.4629 111.043 29.3027C109.854 28.1426 108.601 27.1113 107.283 26.209C105.965 25.2923 104.619 24.526 103.244 23.9102C101.883 23.2799 100.587 22.8145 99.3555 22.5137V42H94.9512V17.8086H97.3359V17.8516C98.9115 17.9375 100.587 18.2884 102.363 18.9043C104.154 19.5059 105.93 20.3294 107.691 21.375C109.467 22.4062 111.172 23.638 112.805 25.0703C114.452 26.4883 115.913 28.0566 117.188 29.7754V17.8086H121.57V42H117.188ZM164.26 42H158.33L142.604 26.166L132.85 33.1914V42H128.445V11.1914H132.85V28.3574L156.998 11.1914H163.422L145.955 23.7383L164.26 42Z" fill="#61A884"/>
<path fill-rule="evenodd" clip-rule="evenodd" d="M13.056 13.9682C11.8757 14.7935 10.8084 15.7693 9.88189 16.8677C13.6681 16.5162 18.4783 17.0902 24.0629 19.8825C30.0265 22.8642 34.8286 22.965 38.1707 22.3204C37.8674 21.4022 37.4856 20.5198 37.0334 19.681C33.2077 20.0845 28.303 19.5504 22.5871 16.6925C18.9574 14.8776 15.7579 14.1301 13.056 13.9682ZM34.7986 16.5C31.7774 13.1244 27.3868 11 22.5 11C21.0649 11 19.6725 11.1832 18.345 11.5276C20.1429 12.0181 22.0528 12.7358 24.0629 13.7409C28.2478 15.8333 31.8608 16.507 34.7986 16.5ZM38.8852 25.5432C34.8477 26.3405 29.2723 26.1767 22.5871 22.8341C16.3372 19.7092 11.3629 19.7485 8.00797 20.4941C7.8348 20.5325 7.66571 20.573 7.5007 20.615C7.06146 21.5703 6.71085 22.5748 6.45928 23.618C6.72797 23.5462 7.00562 23.4779 7.29208 23.4143C11.3622 22.5098 17.1128 22.5491 24.0629 26.0241C30.3128 29.1491 35.2872 29.1097 38.6421 28.3642C38.757 28.3387 38.8703 28.3123 38.9817 28.2851C38.9939 28.0249 39 27.7632 39 27.5C39 26.8379 38.9611 26.1849 38.8852 25.5432ZM38.443 31.7671C34.4446 32.4662 29.0315 32.1979 22.5871 28.9757C16.3372 25.8508 11.3629 25.8902 8.00797 26.6357C7.26328 26.8011 6.59337 27.0027 6.00242 27.2154C6.00081 27.3101 6 27.405 6 27.5C6 36.6127 13.3873 44 22.5 44C30.1371 44 36.5624 38.8115 38.443 31.7671Z" fill="#61A884"/>
</svg>
