<svg width="18" height="16" viewBox="0 0 18 16" fill="none" xmlns="http://www.w3.org/2000/svg">
<path d="M12.027 0.70124V0.697998H12.871L13.1794 0.75959C13.385 0.799576 13.5717 0.851978 13.7394 0.916812C13.9071 0.981645 14.0694 1.05729 14.2263 1.14373C14.3832 1.23017 14.5255 1.31825 14.6532 1.40793C14.7798 1.49654 14.8934 1.59055 14.994 1.68995C15.0936 1.79044 15.2489 1.81638 15.4599 1.76775C15.6709 1.71913 15.8981 1.65159 16.1416 1.56515C16.385 1.47871 16.6258 1.38146 16.8638 1.2734C17.1019 1.16534 17.2469 1.09672 17.2988 1.06755C17.3497 1.0373 17.3767 1.0211 17.38 1.01892L17.3832 1.01406L17.3994 1.00596L17.4157 0.997854L17.4319 0.989749L17.4481 0.981645L17.4514 0.976783L17.4563 0.973541L17.4611 0.970299L17.4644 0.965437L17.4806 0.960574L17.4968 0.957333L17.4936 0.981645L17.4887 1.00596L17.4806 1.03027L17.4725 1.05458L17.4644 1.07079L17.4563 1.087L17.4481 1.11131C17.4427 1.12752 17.4373 1.14913 17.4319 1.17615C17.4265 1.20317 17.3751 1.31121 17.2777 1.50031C17.1803 1.68942 17.0586 1.88121 16.9125 2.07571C16.7664 2.27021 16.6355 2.41716 16.5197 2.51658C16.4029 2.61707 16.3255 2.6873 16.2876 2.72729C16.2498 2.76835 16.2038 2.80616 16.1497 2.84075L16.0685 2.89424L16.0523 2.90234L16.0361 2.91045L16.0328 2.91531L16.0279 2.91855L16.0231 2.92179L16.0198 2.92665L16.0036 2.93476L15.9874 2.94286L15.9841 2.94773L15.9792 2.95097L15.9744 2.95421L15.9711 2.95907L15.9679 2.96393L15.963 2.96718L15.9581 2.97042L15.9549 2.97528H16.0361L16.4905 2.87803C16.7935 2.8132 17.0829 2.73486 17.3589 2.64301L17.7971 2.49713L17.8458 2.48092L17.8701 2.47282L17.8864 2.46471L17.9026 2.45661L17.9188 2.44851L17.9351 2.4404L17.9675 2.43554L18 2.4323V2.46471L17.9919 2.46796L17.9838 2.47282L17.9805 2.47768L17.9756 2.48092L17.9708 2.48416L17.9675 2.48903L17.9643 2.49389L17.9594 2.49713L17.9545 2.50037L17.9513 2.50524L17.9481 2.5101L17.9432 2.51334L17.9351 2.52955L17.9269 2.54576L17.9221 2.549C17.9199 2.55224 17.8512 2.64408 17.7159 2.82454C17.5807 3.00608 17.5077 3.09791 17.4968 3.10008C17.486 3.10333 17.4709 3.11953 17.4514 3.14871C17.433 3.17895 17.3183 3.29945 17.1073 3.51016C16.8963 3.72087 16.6896 3.90833 16.4873 4.07259C16.2839 4.23791 16.1811 4.44105 16.1789 4.68202C16.1757 4.92191 16.1632 5.19314 16.1416 5.49569C16.1199 5.79825 16.0793 6.12511 16.0198 6.4763C15.9603 6.82748 15.8683 7.22459 15.7439 7.66761C15.6195 8.11064 15.468 8.54287 15.2894 8.96429C15.1109 9.3857 14.9242 9.7639 14.7295 10.0989C14.5347 10.4339 14.3562 10.7175 14.1939 10.9498C14.0315 11.1821 13.8665 11.4009 13.6988 11.6063C13.5311 11.8116 13.319 12.0428 13.0626 12.3C12.805 12.5561 12.6644 12.6965 12.6406 12.7214C12.6157 12.7452 12.5097 12.8338 12.3224 12.9872C12.1363 13.1417 11.9361 13.2962 11.7219 13.4508C11.5087 13.6042 11.3129 13.7323 11.1343 13.8349C10.9558 13.9376 10.7405 14.0548 10.4884 14.1866C10.2373 14.3195 9.96572 14.4427 9.67356 14.5562C9.38141 14.6696 9.07302 14.775 8.74841 14.8723C8.42379 14.9695 8.11 15.0451 7.80702 15.0992C7.50405 15.1532 7.1605 15.1991 6.77636 15.2369L6.20016 15.2937V15.3018H5.14516V15.2937L5.0072 15.2856C4.91523 15.2802 4.83949 15.2748 4.77997 15.2694C4.72046 15.264 4.49593 15.2342 4.10639 15.1802C3.71685 15.1262 3.41117 15.0721 3.18934 15.0181C2.96753 14.9641 2.6375 14.8614 2.19926 14.7102C1.76103 14.5589 1.3861 14.406 1.07447 14.2515C0.763922 14.098 0.569152 14.0008 0.490156 13.9597C0.412248 13.9197 0.324602 13.87 0.227216 13.8106L0.0811389 13.7215L0.077909 13.7166L0.0730235 13.7133L0.0681543 13.7101L0.0649081 13.7052L0.0486773 13.6971L0.0324464 13.689L0.0292165 13.6842L0.024331 13.6809L0.0194617 13.6777L0.0162156 13.6728L0.0129856 13.668L0.00810016 13.6647H-1.52588e-05V13.6323L0.0162156 13.6355L0.0324464 13.6404L0.105485 13.6485C0.154178 13.6539 0.286735 13.662 0.503141 13.6728C0.719563 13.6836 0.949489 13.6836 1.19295 13.6728C1.43641 13.662 1.6853 13.6377 1.93957 13.5999C2.19386 13.5621 2.49413 13.4972 2.84038 13.4054C3.18665 13.3135 3.50477 13.2044 3.79477 13.078C4.08368 12.9505 4.28926 12.8554 4.41154 12.7927C4.53272 12.7311 4.71775 12.6166 4.96662 12.4491L5.33993 12.1979L5.34318 12.193L5.34805 12.1898L5.35293 12.1865L5.35616 12.1817L5.35941 12.1768L5.36428 12.1736L5.36916 12.1703L5.37239 12.1654L5.38862 12.1606L5.40485 12.1573L5.4081 12.1411L5.41297 12.1249L5.41785 12.1217L5.42108 12.1168L5.29124 12.1087C5.20468 12.1033 5.12081 12.0979 5.03966 12.0925C4.95851 12.0871 4.83137 12.0628 4.65824 12.0196C4.48512 11.9763 4.29846 11.9115 4.09827 11.8251C3.8981 11.7386 3.70333 11.636 3.51396 11.5171C3.32461 11.3983 3.18772 11.2994 3.10332 11.2205C3.02001 11.1427 2.9118 11.0325 2.7787 10.8898C2.6467 10.7461 2.532 10.5986 2.43461 10.4474C2.33723 10.2961 2.24417 10.1216 2.15546 9.92382L2.02072 9.62883L2.01261 9.60452L2.00449 9.58021L1.99962 9.564L1.99638 9.54779L2.02072 9.55103L2.04507 9.55589L2.22361 9.58021C2.34265 9.59641 2.5293 9.60181 2.78357 9.59641C3.03786 9.59102 3.21369 9.58021 3.31108 9.564C3.40846 9.54779 3.46798 9.53698 3.48961 9.53158L3.52208 9.52348L3.56265 9.51537L3.60323 9.50727L3.60648 9.50241L3.61135 9.49916L3.61623 9.49592L3.61946 9.49106L3.587 9.48296L3.55454 9.47485L3.52208 9.46675L3.48961 9.45864L3.45715 9.45054C3.43552 9.44514 3.39765 9.43433 3.34354 9.41812C3.28944 9.40191 3.14336 9.34248 2.9053 9.23983C2.66726 9.13718 2.4779 9.03722 2.33723 8.93997C2.1962 8.84244 2.06174 8.73578 1.9347 8.62067C1.8081 8.50397 1.66907 8.35376 1.51757 8.17007C1.36609 7.98638 1.23083 7.77297 1.1118 7.52984C0.992776 7.28672 0.903507 7.0544 0.843988 6.83288C0.784709 6.61266 0.7456 6.38752 0.727143 6.16023L0.697911 5.81986L0.714142 5.8231L0.730372 5.82796L0.746603 5.83606L0.762834 5.84417L0.779065 5.85227L0.795296 5.86038L1.04687 5.97383C1.2146 6.04948 1.42289 6.11431 1.67176 6.16834C1.92064 6.22236 2.06942 6.25208 2.11811 6.25748L2.19115 6.26559H2.33723L2.334 6.26072L2.32911 6.25748L2.32424 6.25424L2.32099 6.24938L2.31776 6.24452L2.31288 6.24127L2.30801 6.23803L2.30476 6.23317L2.28853 6.22507L2.2723 6.21696L2.26907 6.2121L2.26419 6.20886L2.25932 6.20562L2.25607 6.20075L2.23984 6.19265L2.22361 6.18454L2.22038 6.17968C2.21713 6.17751 2.1706 6.14294 2.08078 6.07595C1.99204 6.00787 1.89899 5.91981 1.80161 5.81175C1.70422 5.70369 1.60684 5.59023 1.50945 5.47137C1.41189 5.35225 1.32499 5.22479 1.24976 5.09048C1.17403 4.95541 1.09394 4.78359 1.00954 4.57505C0.92623 4.36758 0.86293 4.15849 0.819642 3.94778C0.776371 3.73707 0.752024 3.52907 0.746603 3.32376C0.741198 3.11845 0.746603 2.94286 0.762834 2.79699C0.779065 2.65111 0.811527 2.48632 0.860219 2.30263C0.908912 2.11894 0.979256 1.92444 1.07122 1.71913L1.20918 1.41117L1.2173 1.38686L1.22541 1.36254L1.2303 1.3593L1.23353 1.35444L1.23677 1.34958L1.24164 1.34633L1.24653 1.34958L1.24976 1.35444L1.25301 1.3593L1.25787 1.36254L1.26276 1.36578L1.26599 1.37065L1.26924 1.37551L1.27411 1.37875L1.28222 1.39496L1.29034 1.41117L1.29522 1.41441L1.29845 1.41927L1.51757 1.6624C1.66365 1.82448 1.83678 2.00548 2.03695 2.20538C2.23715 2.40528 2.34805 2.50901 2.36969 2.51658C2.39134 2.52522 2.41838 2.55007 2.45084 2.59114C2.4833 2.63113 2.59151 2.72676 2.77546 2.87803C2.95942 3.0293 3.20017 3.2049 3.49773 3.4048C3.79531 3.6047 4.12533 3.80191 4.48781 3.99641C4.85031 4.19091 5.23985 4.3665 5.65643 4.52318C6.07303 4.67987 6.36518 4.78252 6.5329 4.83114C6.70063 4.87977 6.98736 4.94189 7.39313 5.01754C7.7989 5.09318 8.10459 5.14181 8.31017 5.16341C8.51577 5.18502 8.65644 5.19745 8.73218 5.20069L8.84579 5.20394L8.84256 5.17962L8.83768 5.15531L8.80521 4.95271C8.78358 4.81764 8.77275 4.62854 8.77275 4.38541C8.77275 4.14228 8.79169 3.91807 8.82956 3.71276C8.86744 3.50745 8.92425 3.29945 8.99998 3.08874C9.07573 2.87803 9.14986 2.70891 9.22235 2.58142C9.29594 2.45499 9.39224 2.31073 9.51126 2.14865C9.63029 1.98657 9.78449 1.81909 9.97383 1.64619C10.1632 1.47329 10.3796 1.31931 10.6231 1.18425C10.8665 1.04919 11.0911 0.946522 11.2966 0.876291C11.5022 0.80606 11.6754 0.760125 11.816 0.738519C11.9567 0.716913 12.027 0.704481 12.027 0.70124V0.70124Z" fill="black"/>
</svg>
